<svg width="50" height="50" viewBox="0 0 50 50" fill="none" xmlns="http://www.w3.org/2000/svg">
<path fill-rule="evenodd" clip-rule="evenodd" d="M6.77075 25C6.77075 14.9323 14.9322 6.77083 24.9999 6.77083C35.0676 6.77083 43.2291 14.9323 43.2291 25C43.2291 35.0677 35.0676 43.2292 24.9999 43.2292C14.9322 43.2292 6.77075 35.0677 6.77075 25ZM22.6037 19.3932C20.6588 20.9933 19.3594 23.2439 18.9462 25.7283L17.578 33.9535C17.2622 35.8524 19.4701 37.1271 20.9567 35.9041L27.3959 30.6067C29.3408 29.0066 30.6401 26.7561 31.0534 24.2717L32.4215 16.0465C32.7374 14.1476 30.5294 12.8728 29.0429 14.0958L22.6037 19.3932Z" fill="white"/>
<path d="M21.8749 25C21.8749 23.2741 23.274 21.875 24.9999 21.875C26.7258 21.875 28.1249 23.2741 28.1249 25C28.1249 26.7259 26.7258 28.125 24.9999 28.125C23.274 28.125 21.8749 26.7259 21.8749 25Z" fill="white"/>
</svg>
